<?xml version="1.0" standalone="no"?>
<svg xmlns="http://www.w3.org/2000/svg" viewBox="0 0 353.16120547945206 139.84120547945207" width="353.16120547945206" height="139.84120547945207"><rect fill="none" stroke="#8ba1ef" stroke-width="4" width="349.16120547945206" height="135.84120547945207" x="2" y="2"></rect><g fill="#3052ce" color="#3052ce" transform="translate(12 12.001) scale(2.1856832)"><svg width="53.0" height="53.0" x="0.0" y="0.0" viewBox="0 0 53 53"><path fill="currentColor" fill-rule="evenodd" d="M26.46 51.18c-11.85 0-21.742-8.359-24.115-19.5h20.148c-.434 2.113-1.518 4.537-3.517 7.154-1.79-.266-3.308-1.058-4.035-2.174l-.241-.42h-1.26l-.24.42c-.84 1.38-3 2.28-5.34 2.28v1.8c2.52 0 4.86-.9 6.24-2.34 1.38 1.44 3.72 2.34 6.24 2.34s4.86-.9 6.24-2.34c1.38 1.44 3.72 2.34 6.24 2.34 2.46 0 4.8-.9 6.18-2.28 1.358 1.417 3.589 2.248 6.06 2.275V38.94c-2.34 0-4.5-.9-5.34-2.28l-.24-.42h-1.14l-.3.42c-.614 1.01-1.938 1.757-3.518 2.089-1.675-2.182-3.035-4.68-3.689-7.069h19.742c-2.372 11.141-12.265 19.5-24.114 19.5m-3.54-27.12c-1.5-2.04-4.141-2.7-6.66-3.36-3.361-.9-5.581-1.56-6-3.96h11.4c1.139 0 2.219.42 2.88 1.2l1.92 2.22 1.919-2.22c.72-.72 1.74-1.2 2.88-1.2h11.46c-.42 2.4-2.64 3.12-6 3.96-2.58.66-5.22 1.32-6.66 3.36-2.57 3.5-1.59 9.243 2.372 14.867-2.23-.066-4.207-.94-5.071-2.267l-.24-.42h-1.26l-.24.42c-.736 1.208-2.481 2.048-4.475 2.239 4.484-6.508 3.816-11.97 1.775-14.839M26.46 1.8c13.619 0 24.66 11.1 24.66 24.72 0 1.14-.084 2.26-.234 3.36H30.479c-.203-1.775.07-3.422 1.021-4.74 1.08-1.5 3.3-2.04 5.64-2.64 3.48-.9 7.44-1.92 7.44-6.6V15H31.26c-1.62 0-3.18.72-4.2 1.86l-.6.66-.6-.66c-1.02-1.2-2.58-1.86-4.2-1.86H8.4v.9c0 4.68 3.96 5.7 7.44 6.6 2.34.6 4.56 1.14 5.64 2.64.802 1.112 1.321 2.738 1.24 4.74H2.034c-.15-1.1-.234-2.22-.234-3.36C1.8 12.9 12.84 1.8 26.46 1.8m0-1.8C11.88 0 0 11.94 0 26.52s11.88 26.46 26.46 26.46 26.46-11.94 26.46-26.52S41.04 0 26.46 0"></path></svg></g><path fill="#3052ce" fill-rule="nonzero" d="M18.04 26.40L5.44 26.40L5.44 26.00L7.08 25.60Q8.72 25.24 8.72 23.60L8.72 23.60L8.72 0.80L5.32 0.80Q3.84 0.80 3.20 1.58Q2.56 2.36 1.84 3.72L1.84 3.72L0.40 6.52L0 6.52L0.20 0L23.28 0L23.44 6.52L23.04 6.52L21.60 3.72Q20.92 2.36 20.28 1.58Q19.64 0.80 18.16 0.80L18.16 0.80L14.76 0.80L14.76 23.60Q14.76 25.24 16.40 25.60L16.40 25.60L18.04 26.00L18.04 26.40ZM35.32 26.40L25.16 26.40L25.16 26.00L25.96 25.68Q26.76 25.40 27.02 24.92Q27.28 24.44 27.28 23.68L27.28 23.68L27.28 2.76Q27.28 1.96 27.02 1.48Q26.76 1 25.96 0.72L25.96 0.72L25.16 0.40L25.16 0L35.32 0L35.32 0.40L34.64 0.68Q33.88 0.96 33.60 1.42Q33.32 1.88 33.32 2.68L33.32 2.68L33.32 12.40L42.88 12.40L42.88 2.68Q42.88 1.88 42.62 1.42Q42.36 0.96 41.56 0.68L41.56 0.68L40.84 0.40L40.84 0L51.04 0L51.04 0.40L50.24 0.72Q49.48 1 49.20 1.48Q48.92 1.96 48.92 2.76L48.92 2.76L48.92 23.68Q48.92 24.44 49.20 24.92Q49.48 25.40 50.24 25.68L50.24 25.68L51.04 26.00L51.04 26.40L40.84 26.40L40.84 26.00L41.56 25.76Q42.36 25.44 42.62 24.98Q42.88 24.52 42.88 23.72L42.88 23.72L42.88 13.20L33.32 13.20L33.32 23.72Q33.32 25.20 34.64 25.76L34.64 25.76L35.32 26.00L35.32 26.40ZM72.76 26.40L52.80 26.40L52.80 26.00L53.72 25.64Q54.40 25.36 54.66 24.90Q54.92 24.44 54.92 23.64L54.92 23.64L54.92 2.76Q54.92 1.96 54.70 1.50Q54.48 1.04 53.72 0.76L53.72 0.76L52.80 0.40L52.80 0L71.96 0L72.20 6.16L71.80 6.16L70.08 2.40Q69.72 1.68 69.32 1.24Q68.92 0.80 68.12 0.80L68.12 0.80L60.92 0.80L60.92 12.36L65.20 12.36Q66 12.36 66.42 11.94Q66.84 11.52 67.16 10.80L67.16 10.80L67.96 9.20L68.36 9.20L68.36 16.40L67.96 16.40L67.16 14.72Q66.80 14.00 66.40 13.58Q66 13.16 65.20 13.16L65.20 13.16L60.92 13.16L60.92 25.60L69 25.60Q69.80 25.60 70.24 25.18Q70.68 24.76 70.96 24.00L70.96 24.00L72.60 20.24L73 20.24L72.76 26.40Z" transform="translate(142.842 12.001) scale(2.717)"></path><path fill="#3052ce" fill-rule="nonzero" d="M5.52 27.12L0 27.12L0 26.72L1 26.36Q1.80 26.04 2.24 25.58Q2.68 25.12 2.96 24.28L2.96 24.28L11.20 0.64L14.60 0.64L22.72 24.44Q23.04 25.32 23.44 25.78Q23.84 26.24 24.68 26.56L24.68 26.56L25.16 26.72L25.16 27.12L15 27.12L15 26.72L15.60 26.52Q16.44 26.20 16.62 25.62Q16.80 25.04 16.56 24.24L16.56 24.24L14.68 18.48L5.80 18.48L3.88 24.12Q3.60 25 3.70 25.52Q3.80 26.04 4.64 26.36L4.64 26.36L5.52 26.72L5.52 27.12ZM10.40 5.24L6.08 17.68L14.44 17.68L10.40 5.24ZM39.08 27.84L39.08 27.84Q36.52 27.84 34.24 26.92L34.24 26.92L32.48 29.40Q35.08 30.04 38.42 30.78Q41.76 31.52 45 32.20L45 32.20Q46.56 32.52 47.34 32.50Q48.12 32.48 48.76 32.08L48.76 32.08L49.84 31.40L50.16 31.84L48.12 34.04Q47.24 34.96 46.40 35.54Q45.56 36.12 44.52 36.12L44.52 36.12Q43.68 36.12 42.12 35.86Q40.56 35.60 38.64 35.22Q36.72 34.84 34.80 34.42Q32.88 34 31.32 33.68L31.32 33.68Q30.68 33.52 30.16 33.62Q29.64 33.72 29.16 34.24L29.16 34.24L28.68 34.72L28.20 34.36L33.24 26.44Q30.32 24.96 28.40 21.82Q26.48 18.68 26.48 13.92L26.48 13.92Q26.48 10.48 27.52 7.88Q28.56 5.28 30.36 3.54Q32.16 1.80 34.42 0.90Q36.68 0 39.08 0L39.08 0Q41.52 0 43.78 0.86Q46.04 1.72 47.82 3.46Q49.60 5.20 50.64 7.82Q51.68 10.44 51.68 13.92L51.68 13.92Q51.68 17.32 50.64 19.94Q49.60 22.56 47.82 24.30Q46.04 26.04 43.78 26.94Q41.52 27.84 39.08 27.84ZM39.08 27L39.08 27Q41.28 27 42.64 25.82Q44 24.64 44.62 21.78Q45.24 18.92 45.24 13.92L45.24 13.92Q45.24 8.88 44.62 6.02Q44 3.16 42.64 1.98Q41.28 0.80 39.08 0.80L39.08 0.80Q36.92 0.80 35.56 1.98Q34.20 3.16 33.58 6.02Q32.96 8.88 32.96 13.92L32.96 13.92Q32.96 18.92 33.58 21.78Q34.20 24.64 35.56 25.82Q36.92 27 39.08 27ZM66.04 27.84L66.04 27.84Q63 27.84 60.66 26.76Q58.32 25.68 57.02 23.34Q55.72 21 55.72 17.16L55.72 17.16L55.72 3.36Q55.72 1.84 54.16 1.36L54.16 1.36L53.28 1.12L53.28 0.72L64.36 0.72L64.36 1.12L63.20 1.44Q61.72 1.80 61.72 3.44L61.72 3.44L61.72 18.20Q61.72 21.92 63.28 23.70Q64.84 25.48 67.76 25.48L67.76 25.48Q70.80 25.48 72.58 23.60Q74.36 21.72 74.36 18.28L74.36 18.28L74.36 3.60Q74.36 2.80 74.10 2.18Q73.84 1.56 73.04 1.36L73.04 1.36L72.04 1.12L72.04 0.72L77.64 0.72L77.64 1.12L76.56 1.40Q75.80 1.56 75.56 2.16Q75.32 2.76 75.32 3.56L75.32 3.56L75.32 18.20Q75.32 21.12 74.16 23.30Q73 25.48 70.92 26.66Q68.84 27.84 66.04 27.84ZM84.28 27.12L78.76 27.12L78.76 26.72L79.76 26.36Q80.56 26.04 81 25.58Q81.44 25.12 81.72 24.28L81.72 24.28L89.96 0.64L93.36 0.64L101.48 24.44Q101.80 25.32 102.20 25.78Q102.60 26.24 103.44 26.56L103.44 26.56L103.92 26.72L103.92 27.12L93.76 27.12L93.76 26.72L94.36 26.52Q95.20 26.20 95.38 25.62Q95.56 25.04 95.32 24.24L95.32 24.24L93.44 18.48L84.56 18.48L82.64 24.12Q82.36 25 82.46 25.52Q82.56 26.04 83.40 26.36L83.40 26.36L84.28 26.72L84.28 27.12ZM89.16 5.24L84.84 17.68L93.20 17.68L89.16 5.24ZM115.56 27.12L105.32 27.12L105.32 26.72L106.16 26.44Q106.96 26.16 107.20 25.70Q107.44 25.24 107.44 24.40L107.44 24.40L107.44 3.48Q107.44 2.68 107.22 2.22Q107 1.76 106.24 1.48L106.24 1.48L105.32 1.12L105.32 0.72L116.76 0.72Q121.48 0.72 124 2.50Q126.52 4.28 126.52 7.44L126.52 7.44Q126.52 9.20 125.20 10.96Q123.88 12.72 121.04 13.68L121.04 13.68L126.60 24.72Q126.96 25.40 127.42 25.82Q127.88 26.24 128.64 26.56L128.64 26.56L129.16 26.76L129.16 27.12L122 27.12L116.08 14.52L113.36 14.52L113.36 24.40Q113.36 25.16 113.60 25.64Q113.84 26.12 114.60 26.36L114.60 26.36L115.56 26.72L115.56 27.12ZM113.36 1.52L113.36 13.72L115.28 13.72Q118.16 13.72 119.44 12.18Q120.72 10.64 120.72 7.60L120.72 7.60Q120.72 4.52 119.52 3.02Q118.32 1.52 115.48 1.52L115.48 1.52L113.36 1.52ZM140.72 27.12L130.44 27.12L130.44 26.72L131.24 26.40Q132.04 26.12 132.30 25.64Q132.56 25.16 132.56 24.36L132.56 24.36L132.56 3.48Q132.56 2.68 132.32 2.20Q132.08 1.72 131.24 1.44L131.24 1.44L130.44 1.12L130.44 0.72L140.72 0.72L140.72 1.12L139.92 1.44Q139.12 1.72 138.86 2.20Q138.60 2.68 138.60 3.48L138.60 3.48L138.60 24.36Q138.60 25.16 138.86 25.62Q139.12 26.08 139.92 26.40L139.92 26.40L140.72 26.72L140.72 27.12ZM155.16 27.84L155.16 27.84Q152.12 27.84 149.78 26.76Q147.44 25.68 146.14 23.34Q144.84 21 144.84 17.16L144.84 17.16L144.84 3.36Q144.84 1.84 143.28 1.36L143.28 1.36L142.40 1.12L142.40 0.72L153.48 0.72L153.48 1.12L152.32 1.44Q150.84 1.80 150.84 3.44L150.84 3.44L150.84 18.20Q150.84 21.92 152.40 23.70Q153.96 25.48 156.88 25.48L156.88 25.48Q159.92 25.48 161.70 23.60Q163.48 21.72 163.48 18.28L163.48 18.28L163.48 3.60Q163.48 2.80 163.22 2.18Q162.96 1.56 162.16 1.36L162.16 1.36L161.16 1.12L161.16 0.72L166.76 0.72L166.76 1.12L165.68 1.40Q164.92 1.56 164.68 2.16Q164.44 2.76 164.44 3.56L164.44 3.56L164.44 18.20Q164.44 21.12 163.28 23.30Q162.12 25.48 160.04 26.66Q157.96 27.84 155.16 27.84ZM173.64 27.12L168.36 27.12L168.36 26.72L169.16 26.44Q170.52 26 170.52 24.16L170.52 24.16L170.52 3.68Q170.52 2.88 170.34 2.40Q170.16 1.92 169.40 1.60L169.40 1.60L168.36 1.12L168.36 0.72L176.08 0.72L183.48 20.08L190.44 0.72L198.32 0.72L198.32 1.12L197.68 1.36Q196.92 1.64 196.64 2.14Q196.36 2.64 196.36 3.44L196.36 3.44L196.36 24.36Q196.36 25.16 196.56 25.60Q196.76 26.04 197.52 26.36L197.52 26.36L198.32 26.72L198.32 27.12L188.36 27.12L188.36 26.72L189.20 26.36Q189.96 26.04 190.16 25.60Q190.36 25.16 190.36 24.36L190.36 24.36L190.36 15.36L190.44 3.92L182.08 27.12L180.08 27.12L171.36 4.20L171.48 14.16L171.48 24.24Q171.48 25.12 171.74 25.66Q172 26.20 172.76 26.44L172.76 26.44L173.64 26.72L173.64 27.12Z" transform="translate(142.842 91.723) scale(1)"></path></svg>